<svg width="100" height="100" viewBox="0 0 100 100" fill="none" xmlns="http://www.w3.org/2000/svg">
<path d="M50.6978 51.3939C50.2463 51.35 49.7658 51.3532 49.3199 51.3944C41.9422 51.0549 36.1033 44.9917 36.1033 37.5497C36.1033 29.8755 42.289 23.6498 50.0032 23.6498C57.6701 23.6498 63.8994 29.8767 63.9032 37.5427C63.8574 45.001 58.055 51.0492 50.6978 51.3939Z" stroke="#065FD4" stroke-width="5" stroke-linecap="round" stroke-linejoin="round"/>
<path d="M81.0128 85.9445C72.681 93.1589 61.8695 97.5 49.9987 97.5C38.1278 97.5 27.3163 93.1589 18.9846 85.9445C19.7388 82.535 22.1592 79.0269 26.5381 76.0785C32.8922 71.8601 41.4052 69.6752 50.0362 69.6752C58.6697 69.6752 67.1552 71.8613 73.4559 76.0763C77.837 79.0251 80.2584 82.5341 81.0128 85.9445Z" stroke="#065FD4" stroke-width="5" stroke-linecap="round" stroke-linejoin="round"/>
<path d="M97.4995 49.9997C97.4995 76.2329 76.2329 97.4995 49.9997 97.4995C23.7664 97.4995 2.5 76.2329 2.5 49.9997C2.5 23.7663 23.7663 2.5 49.9997 2.5C76.2329 2.5 97.4995 23.7664 97.4995 49.9997Z" stroke="#065FD4" stroke-width="5" stroke-linecap="round" stroke-linejoin="round"/>
</svg>
